<svg xmlns="http://www.w3.org/2000/svg" viewBox="0 0 2011 426"><path fill="#EE1210" fill-rule="evenodd" d="M622.1 1c37.327-.162 74.326.636 106 3 1.981 1.758 3.415 3.618 4 5a311.911 311.911 0 0 1-1 41c-.875 7.287-9.262 15.767-7.1 24.1 1.693 8.133 5.746 16.091 7.1 22 7.719 21.496 12.42 42.307 18 61 11.786 33.814 18.461 67.204 29.9 98 6.631 19.275 11.12 38.155 17 55 2.646 8.887 1.422 18.801 10.1 19 11.467-22.231 9.516-60.595 9.9-94 .232-18.713 2.246-47.368-2-67.1-1.608-7.47.339-17.778-1-24.9V122c-.003-14.533-.541-30.483-3.9-43-8.352-5.121-18.092-11.711-22-23.9V43c.893-15.626.145-33.184 11.9-37.9 5.029-2.93 12.267-.453 20-2.1 21.145-4.504 58.049-.999 81.1-1 71.742-.002 152.804-6.104 209 9.1 18.313 5.811 37.861 11.061 51.9 19.9 7.717 4.858 14.339 16.077 24.1 16.1 4.976-6.498 1.368-17.351 3-29 2.233-3.433 3.567-7.767 4.9-13 9.103-4.23 25.422-4 40-3.1h393.1c23.848-.003 52.969-3.615 73 1 10.674 2.155 21.801-.737 28.9 3.1 8.259 6.411 5.539 32.959 3 42-5.362 4.104-18.218 9.276-20 15.9-1.552 5.769 2.866 14.453 4.1 17.1 8.439 13.427 15.896 28.072 22 40.9 4.69 6.942 4.966 15.126 14.9 15.1 14.862-15.236 23.214-36.772 35-57 2.63-3.413 11.237-10.987 7.1-21-1.154-4.884-17.009-12.392-23-18 .508-9.503-2.023-32.503 6-37 4.418-1.348 28.126-3.669 34-2.1 3.747.659 7.453 2.905 11.9 2 18.582-3.78 45.16-2 66.1-2 40.662-.9 84.049-1.621 116 4.1 9.243 15.282 5.158 49.08-4 59.9-2.536 4.502-10.788 7.487-18 8.1-17.397 5.285-38.764-4.734-48.1 7-9.14 13.268-15.751 26.835-24.9 39.9-14.642 24.618-31.268 48.916-47.1 74-11.936 18.911-33.127 40.819-39 64v31.1c-.003 24.459-2.982 54.815 2 74 5.896 4.342 19.573 7.971 21.1 14 6.087 7.752.98 39.051-5.1 41-7.331 7.238-32.421 3-45.9 3H1676c-13.328.9-42.325 2.701-48-4.1-6.157-7.623-3.378-25.006 0-33 7.126-3.816 17.623-6.298 22-13.9 3.891-4.146 2-18.683 2-28v-74c-.005-26.954-12.234-44.462-23-63-5.224-7.658-7.772-16.545-13-25.1-8.026-13.132-16.899-26.994-25-40-7.392-11.869-16.231-36.713-27.9-44.9-8.051-5.156-25.554-1.473-37-7-7.065-2.595-22.672-20.263-29.1-28-11.186.035-38.127-3.766-43.9 4.9-2.008 5.171-1 17.897-1 25v199.1c.9 21.614-3.298 49.081 1 65.9 5.681 15.469 19.74 23.712 29.9 34 .268 9.196 2.2 26.749-3 30.1-3.783 3.778-39.685 2-50.9 2-40.121.901-83.621 1-127 1.9-17.62 0-45.111 3.692-50.1-10.9-6.058-5.456-1.796-19.099 0-27 1.667-.766 3.334-2.434 5-5 7.227-3.984 18.859-3.171 21.1-12.1 6.992-6.792 3-48.193 3-62V131.1c.9-13.486 4.023-61.761-4-67.1-2.099-2.341-6.824-2.971-13-3.9-23.039.766-26.043 18.157-42 25.9-7.321 4.228-16.349 1.719-25.1 1.1-1.667 2-3.333 4.9-5 6.9-3.963 10.778 1.825 25.836-1.9 37.1-1.274 10.258-5.098 19.154-10.1 25-8.018 11.715-24.812 20.488-38 25.9-6.988 2.868-19.083 3.178-22 9.1-.752 1.973-.601 1.846-1 3.9 31.389 19.22 60.855 15.647 71.1 58 3.623 10.35 1.89 25.858-1 35-1.275 9.99.047 45.337 1 54 2.615 8.019-.423 16.036 2.9 22 5.796 10.402 29.186 3.376 33.1 14.1 8.664 7.493 7.179 32.449 4.9 42-1.766 1.861-1.68 2.157-4.9 2-7.272 6.035-39.039 1-52.1 1.9h-75c-12.179 0-27.539 1.257-38-1.9-15.958-2.543-31.029 2.158-44.9-3.1-1.005-3.029-3.951-6.248-5.1-10.9-7.498-23.583 10.686-32.509 14-50 .837-3.291-1.257-10.649-2-15v-26c.003-26.359 4.986-60.028-1-84-10.493-5.359-21.386-10.038-38-8.1-1.667 1.1-3.333 4-5.9 6v129.1c3.568 10.147 15.116 10.584 17 19 3.938 11.065 3.164 34.198-3.1 38.9-10.794 8.136-69.764 4.1-91.9 4.1-52.761.567-106.439.233-160.1-1-10.775 3.202-26.502 1-39 1-20.999.9-42.176 2.742-59.9-2-.678-1.351-3.084-4.193-6-7 .655-5.879-1.75-15.627 0-22.1 3.342-5.965 9.17-9.767 10.9-17.9 2.375-9.033-6.126-25.507-8.9-35-1.1-.766-4-2.434-5.1-4.1-22.639-.502-50.542-2.378-73.9 2-4.571 8.563-7.248 17.795-10.1 29.1-6.046 26.778 15.766 34.794-5.9 56-56.124.993-119.372 6.222-175-1-1.1-1.1-4-4-5.1-6-2.987-4.905-3.799-28.387 0-35 2.208-5.559 8.036-5.503 12.1-9.1 4.954-2.937 9.036-10.05 10.9-15 1.666-6.999 3.334-14.001 4.1-21 10.344-28.254 17.176-57.873 26.9-87.9 10.615-30.895 18.128-64.299 28.1-97.1 8.522-22.995 17.098-48.123 22-72 3.623-11.208-6.03-17.092-8.1-25-2.914-11.129.185-36.452 2-45.9 9.979-4.644 18.737-.24 32-3.1 8.354-1.801 20.984-1.9 30.1-1h59c9.542 0 36.591 2.286 41-1ZM21 2h158.1c39.676-.002 79.826-1.519 112 6 7.566.667 14.234 1.333 20 2 26.102 6.377 55.445 11.826 68.9 29.1 17.007 23.873 14.002 65.393 13.1 105 .898 33.097 2.679 65.699-10.1 84-18.111 28.113-53.339 29.537-91.9 37.9-11.338 2.718-24.5.492-37 2.1-15.765 1.233-32.435 1.567-50 1-5.056.9-16.047-.607-21 1-2.027 1.847-2.611 2.664-5 4-4.258 7.739-2 30.117-2 40.9v50.1c2.202 6.04 6.103 9.812 7 13 5.545 11.465 3.429 26.513 0 36-2.15 2.898-5.44 6.734-9.1 7-15.332 1.233-30.668 1.567-46.9 1-36.427.9-84.833 5.229-118-3-1.691-3.002-5.555-6.055-7.1-12-8.265-26.099 14.232-38.818 7.1-69-2.487-15.013-1-37.332-1-56v-118c4.201-14.377 1.9-35.976 1-54V85C8.511 78.586 5.029 73.437 3 67.1c-4.402-10.895-4.883-57.888 5.1-63C11.727 2.995 17.939 3.935 21 2Zm964 59.1c-2.471 4.199-4.433 4.235-5.9 9.9-1.756 4.127-.1 15.905-1 22 0 16.468-2.721 65.836 5.9 71.1 8.724 7.773 30.795-.906 34.1-7 8.329-8.276 4.904-24.157 4.9-40-.01-38.228 6.095-56.141-38-56Zm-800.9 5c-.173 1.652-.046 1.501-3 1-.383 2.972-1.177 3.202-3 5.9-3.521 6.281-1.1 24.16-2 34 0 30.463-2.717 68.04 2 95 1 .333 2.9.667 3 1 6.694 4.025 18.035.791 23-1 9.749-2.702 17.556-4.145 20-12 5.148-9.978 1.9-53.497 1.9-68-.9-10.945 3.109-32.931-2.9-40.9-3.539-11.758-22.568-12.486-39-15Zm410 95.9c-.233 1.546-.185.843-1.1 2.1-3.665 5.839-2.237 13.903-4 20-3.787 15.934-11.816 44.042-9.9 59.9 8.923 4.725 22.672 4.451 32.9 2v-2c2.86-3.805 2.488-13.156 1-19-3.563-13.99-6.216-30.961-10.9-45.9-1.212-6.936 1.264-15.448-8-17.1Z"/></svg>